<?xml version="1.0" encoding="UTF-8"?>
<svg width="560px" height="376px" viewBox="0 0 560 376" version="1.1" xmlns="http://www.w3.org/2000/svg" xmlns:xlink="http://www.w3.org/1999/xlink">
    <!-- Generator: Sketch 42 (36781) - http://www.bohemiancoding.com/sketch -->
    <title>Coffee graph Copy</title>
    <desc>Created with Sketch.</desc>
    <defs></defs>
    <g id="Page-1" stroke="none" stroke-width="1" fill="none" fill-rule="evenodd">
        <g id="Coffee-graph-Copy">
            <rect id="Rectangle" fill="#ECF2FA" x="0" y="0" width="560" height="376" rx="8"></rect>
            <rect id="Rectangle-2" fill="#FFFFFF" x="40" y="39" width="480" height="298" rx="8"></rect>
            <rect id="Rectangle-3-Copy-3" fill="#ECF2F9" x="356" y="35" width="2" height="309" rx="1"></rect>
            <rect id="Rectangle-3-Copy-4" fill="#ECF2F9" x="191" y="35" width="2" height="309" rx="1"></rect>
            <path d="M38.796875,338.5 C38.796875,338.5 351.474892,298.05172 518.796875,62" id="Path-2" stroke="#06D57E" stroke-width="8" stroke-linecap="round"></path>
            <circle id="Oval" fill="#DCF600" cx="192" cy="297" r="9"></circle>
            <circle id="Oval" fill="#131B43" cx="192" cy="297" r="5"></circle>
            <circle id="Oval-Copy" fill="#DCF600" cx="357" cy="216" r="9"></circle>
            <circle id="Oval-Copy-2" fill="#DCF600" cx="520" cy="60" r="9"></circle>
            <circle id="Oval-Copy-3" fill="#131B43" cx="357" cy="216" r="5"></circle>
            <circle id="Oval-Copy-4" fill="#131B43" cx="520" cy="60" r="5"></circle>
            <path d="M43.976,362 L43.976,358.15 L40.644,352.2 L42.016,352.2 L44.578,356.96 L47.168,352.2 L48.498,352.2 L45.194,358.122 L45.194,362 L43.976,362 Z M51.928,362.168 C50.9573285,362.168 50.1850029,361.820337 49.611,361.125 C49.0369971,360.429663 48.75,359.526672 48.75,358.416 C48.75,357.249327 49.0393304,356.33467 49.618,355.672 C50.1966696,355.00933 50.9666619,354.678 51.928,354.678 C52.786671,354.678 53.4936639,354.964997 54.049,355.539 C54.6043361,356.113003 54.882,356.959994 54.882,358.08 C54.882,358.341335 54.8680001,358.611999 54.84,358.892 L49.996,358.892 C50.0426669,359.545337 50.2456649,360.070331 50.605,360.467 C50.9643351,360.863669 51.414664,361.062 51.956,361.062 C52.5533363,361.062 53.0666645,360.847335 53.496,360.418 L54.238,361.244 C53.6219969,361.860003 52.8520046,362.168 51.928,362.168 Z M49.982,357.856 L53.65,357.856 C53.6406666,357.118663 53.4656684,356.584335 53.125,356.253 C52.7843316,355.921665 52.3853356,355.756 51.928,355.756 C51.3773306,355.756 50.9246684,355.930998 50.57,356.281 C50.2153316,356.631002 50.0193335,357.155997 49.982,357.856 Z M60.804,362 L60.804,361.342 C60.2159971,361.892669 59.5393372,362.168 58.774,362.168 C58.0179962,362.168 57.4136689,361.960335 56.961,361.545 C56.5083311,361.129665 56.282,360.534671 56.282,359.76 C56.282,358.985329 56.5386641,358.397335 57.052,357.996 C57.5653359,357.594665 58.1999962,357.394 58.956,357.394 C59.6466701,357.394 60.262664,357.547998 60.804,357.856 L60.804,357.352 C60.804,356.754664 60.6710013,356.337001 60.405,356.099 C60.1389987,355.860999 59.7540025,355.742 59.25,355.742 C58.5313297,355.742 57.8360034,355.979998 57.164,356.456 L56.814,355.434 C57.5793372,354.929997 58.4426619,354.678 59.404,354.678 C61.1026752,354.678 61.952,355.536658 61.952,357.254 L61.952,362 L60.804,362 Z M58.956,361.09 C59.6560035,361.09 60.2719973,360.777336 60.804,360.152 L60.804,358.92 C60.2906641,358.602665 59.7306697,358.444 59.124,358.444 C58.6293309,358.444 58.2233349,358.555999 57.906,358.78 C57.5886651,359.004001 57.43,359.330665 57.43,359.76 C57.43,360.161335 57.5629987,360.483332 57.829,360.726 C58.0950013,360.968668 58.4706642,361.09 58.956,361.09 Z M64.066,362 L64.066,354.846 L65.284,354.846 L65.284,355.784 C65.6200017,355.046663 66.1846627,354.678 66.978,354.678 C67.4260022,354.678 67.7946652,354.799332 68.084,355.042 L67.902,356.19 C67.6033318,355.984666 67.2626686,355.882 66.88,355.882 C66.4599979,355.882 66.0890016,356.045332 65.767,356.372 C65.4449984,356.698668 65.284,357.230663 65.284,357.968 L65.284,362 L64.066,362 Z M71.626,362.168 C71.1126641,362.168 70.6250023,362.058334 70.163,361.839 C69.7009977,361.619666 69.3253348,361.328002 69.036,360.964 L69.904,360.222 C70.4360027,360.791336 71.0193302,361.076 71.654,361.076 C72.0553353,361.076 72.3773321,360.999001 72.62,360.845 C72.8626679,360.690999 72.984,360.464668 72.984,360.166 C72.984,359.941999 72.8953342,359.739001 72.718,359.557 C72.5406658,359.374999 72.3586676,359.239667 72.172,359.151 C71.9853324,359.062333 71.7100018,358.948001 71.346,358.808 C70.6179964,358.537332 70.0673352,358.234002 69.694,357.898 C69.3206648,357.561998 69.134,357.118669 69.134,356.568 C69.134,355.98933 69.3603311,355.529668 69.813,355.189 C70.2656689,354.848332 70.8419965,354.678 71.542,354.678 C72.5406717,354.678 73.3433303,355.03733 73.95,355.756 L73.11,356.456 C72.6713311,355.998664 72.1440031,355.77 71.528,355.77 C71.1639982,355.77 70.8746677,355.839999 70.66,355.98 C70.4453323,356.120001 70.338,356.315999 70.338,356.568 C70.338,356.708001 70.3729996,356.836333 70.443,356.953 C70.5130003,357.069667 70.6389991,357.179333 70.821,357.282 C71.0030009,357.384667 71.1476661,357.461666 71.255,357.513 C71.3623339,357.564334 71.5606652,357.645999 71.85,357.758 C72.6060038,358.028668 73.1823313,358.336665 73.579,358.682 C73.9756687,359.027335 74.174,359.512664 74.174,360.138 C74.174,360.77267 73.9453356,361.269665 73.488,361.629 C73.0306644,361.988335 72.4100039,362.168 71.626,362.168 Z" id="Years" fill="#131E4B"></path>
            <path d="M514.887,362.168 C513.234992,362.168 512.11967,361.407341 511.541,359.886 L512.675,359.424 C513.113669,360.478672 513.850995,361.006 514.887,361.006 C515.503003,361.006 516.006998,360.856668 516.399,360.558 C516.791002,360.259332 516.987,359.825336 516.987,359.256 C516.987,358.714664 516.814335,358.283002 516.469,357.961 C516.123665,357.638998 515.61967,357.478 514.957,357.478 L514.257,357.478 L514.257,356.33 L514.887,356.33 C515.400336,356.33 515.815665,356.187668 516.133,355.903 C516.450335,355.618332 516.609,355.242669 516.609,354.776 C516.609,354.290664 516.452668,353.903335 516.14,353.614 C515.827332,353.324665 515.423669,353.18 514.929,353.18 C514.042329,353.18 513.393669,353.618662 512.983,354.496 L511.849,354.062 C512.082335,353.464664 512.462664,352.977002 512.99,352.599 C513.517336,352.220998 514.163663,352.032 514.929,352.032 C515.778338,352.032 516.482997,352.279331 517.043,352.774 C517.603003,353.268669 517.883,353.88933 517.883,354.636 C517.883,355.084002 517.773334,355.499331 517.554,355.882 C517.334666,356.264669 517.024335,356.558666 516.623,356.764 C517.136336,356.969334 517.537665,357.281998 517.827,357.702 C518.116335,358.122002 518.261,358.625997 518.261,359.214 C518.261,360.100671 517.939003,360.814664 517.295,361.356 C516.650997,361.897336 515.848338,362.168 514.887,362.168 Z M523.721,362.168 C523.095664,362.168 522.549669,362.021001 522.083,361.727 C521.616331,361.432999 521.259335,361.036336 521.012,360.537 C520.764665,360.037664 520.582667,359.503336 520.466,358.934 C520.349333,358.364664 520.291,357.753337 520.291,357.1 C520.291,356.502664 520.342333,355.931003 520.445,355.385 C520.547667,354.838997 520.720332,354.302336 520.963,353.775 C521.205668,353.247664 521.562664,352.825335 522.034,352.508 C522.505336,352.190665 523.067663,352.032 523.721,352.032 C524.346336,352.032 524.892331,352.178999 525.359,352.473 C525.825669,352.767001 526.182665,353.165997 526.43,353.67 C526.677335,354.174003 526.859333,354.710664 526.976,355.28 C527.092667,355.849336 527.151,356.455997 527.151,357.1 C527.151,357.697336 527.097334,358.268997 526.99,358.815 C526.882666,359.361003 526.707668,359.897664 526.465,360.425 C526.222332,360.952336 525.865336,361.374665 525.394,361.692 C524.922664,362.009335 524.365003,362.168 523.721,362.168 Z M523.721,361.02 C524.141002,361.02 524.500332,360.903335 524.799,360.67 C525.097668,360.436666 525.319333,360.114669 525.464,359.704 C525.608667,359.293331 525.711333,358.880335 525.772,358.465 C525.832667,358.049665 525.863,357.594669 525.863,357.1 C525.863,356.577331 525.830334,356.096669 525.765,355.658 C525.699666,355.219331 525.590001,354.806335 525.436,354.419 C525.281999,354.031665 525.060335,353.726001 524.771,353.502 C524.481665,353.277999 524.131669,353.166 523.721,353.166 C523.291665,353.166 522.927668,353.284999 522.629,353.523 C522.330332,353.761001 522.106334,354.082998 521.957,354.489 C521.807666,354.895002 521.702667,355.310331 521.642,355.735 C521.581333,356.159669 521.551,356.614664 521.551,357.1 C521.551,357.622669 521.583666,358.100998 521.649,358.535 C521.714334,358.969002 521.826333,359.381998 521.985,359.774 C522.143667,360.166002 522.369999,360.471666 522.664,360.691 C522.958001,360.910334 523.310331,361.02 523.721,361.02 Z" id="30" fill="#131E4B"></path>
            <path d="M186.614,362 L186.614,354.188 L184.976,354.188 L184.976,353.362 C186.030672,353.362 186.688665,352.974671 186.95,352.2 L187.832,352.2 L187.832,362 L186.614,362 Z M194.118,362.168 C193.492664,362.168 192.946669,362.021001 192.48,361.727 C192.013331,361.432999 191.656335,361.036336 191.409,360.537 C191.161665,360.037664 190.979667,359.503336 190.863,358.934 C190.746333,358.364664 190.688,357.753337 190.688,357.1 C190.688,356.502664 190.739333,355.931003 190.842,355.385 C190.944667,354.838997 191.117332,354.302336 191.36,353.775 C191.602668,353.247664 191.959664,352.825335 192.431,352.508 C192.902336,352.190665 193.464663,352.032 194.118,352.032 C194.743336,352.032 195.289331,352.178999 195.756,352.473 C196.222669,352.767001 196.579665,353.165997 196.827,353.67 C197.074335,354.174003 197.256333,354.710664 197.373,355.28 C197.489667,355.849336 197.548,356.455997 197.548,357.1 C197.548,357.697336 197.494334,358.268997 197.387,358.815 C197.279666,359.361003 197.104668,359.897664 196.862,360.425 C196.619332,360.952336 196.262336,361.374665 195.791,361.692 C195.319664,362.009335 194.762003,362.168 194.118,362.168 Z M194.118,361.02 C194.538002,361.02 194.897332,360.903335 195.196,360.67 C195.494668,360.436666 195.716333,360.114669 195.861,359.704 C196.005667,359.293331 196.108333,358.880335 196.169,358.465 C196.229667,358.049665 196.26,357.594669 196.26,357.1 C196.26,356.577331 196.227334,356.096669 196.162,355.658 C196.096666,355.219331 195.987001,354.806335 195.833,354.419 C195.678999,354.031665 195.457335,353.726001 195.168,353.502 C194.878665,353.277999 194.528669,353.166 194.118,353.166 C193.688665,353.166 193.324668,353.284999 193.026,353.523 C192.727332,353.761001 192.503334,354.082998 192.354,354.489 C192.204666,354.895002 192.099667,355.310331 192.039,355.735 C191.978333,356.159669 191.948,356.614664 191.948,357.1 C191.948,357.622669 191.980666,358.100998 192.046,358.535 C192.111334,358.969002 192.223333,359.381998 192.382,359.774 C192.540667,360.166002 192.766999,360.471666 193.061,360.691 C193.355001,360.910334 193.707331,361.02 194.118,361.02 Z" id="10" fill="#131E4B"></path>
            <path d="M348.223,362 C348.223,361.383997 348.311666,360.821669 348.489,360.313 C348.666334,359.804331 348.922998,359.358669 349.259,358.976 C349.595002,358.593331 349.930998,358.271335 350.267,358.01 C350.603002,357.748665 351.004331,357.482668 351.471,357.212 C351.900335,356.950665 352.236332,356.729001 352.479,356.547 C352.721668,356.364999 352.947999,356.120002 353.158,355.812 C353.368001,355.503998 353.473,355.177335 353.473,354.832 C353.473,354.355998 353.298002,353.959335 352.948,353.642 C352.597998,353.324665 352.13367,353.166 351.555,353.166 C350.472328,353.166 349.777002,353.646662 349.469,354.608 L348.377,354.118 C348.573001,353.501997 348.96033,353.000335 349.539,352.613 C350.11767,352.225665 350.803663,352.032 351.597,352.032 C352.567672,352.032 353.332997,352.290997 353.893,352.809 C354.453003,353.327003 354.733,354.010662 354.733,354.86 C354.733,355.196002 354.681667,355.508665 354.579,355.798 C354.476333,356.087335 354.352667,356.334666 354.208,356.54 C354.063333,356.745334 353.855668,356.959999 353.585,357.184 C353.314332,357.408001 353.074001,357.587666 352.864,357.723 C352.653999,357.858334 352.371668,358.033332 352.017,358.248 C351.32633,358.649335 350.782669,359.045998 350.386,359.438 C349.989331,359.830002 349.739667,360.287331 349.637,360.81 L354.817,360.81 L354.817,362 L348.223,362 Z M360.291,362.168 C359.665664,362.168 359.119669,362.021001 358.653,361.727 C358.186331,361.432999 357.829335,361.036336 357.582,360.537 C357.334665,360.037664 357.152667,359.503336 357.036,358.934 C356.919333,358.364664 356.861,357.753337 356.861,357.1 C356.861,356.502664 356.912333,355.931003 357.015,355.385 C357.117667,354.838997 357.290332,354.302336 357.533,353.775 C357.775668,353.247664 358.132664,352.825335 358.604,352.508 C359.075336,352.190665 359.637663,352.032 360.291,352.032 C360.916336,352.032 361.462331,352.178999 361.929,352.473 C362.395669,352.767001 362.752665,353.165997 363,353.67 C363.247335,354.174003 363.429333,354.710664 363.546,355.28 C363.662667,355.849336 363.721,356.455997 363.721,357.1 C363.721,357.697336 363.667334,358.268997 363.56,358.815 C363.452666,359.361003 363.277668,359.897664 363.035,360.425 C362.792332,360.952336 362.435336,361.374665 361.964,361.692 C361.492664,362.009335 360.935003,362.168 360.291,362.168 Z M360.291,361.02 C360.711002,361.02 361.070332,360.903335 361.369,360.67 C361.667668,360.436666 361.889333,360.114669 362.034,359.704 C362.178667,359.293331 362.281333,358.880335 362.342,358.465 C362.402667,358.049665 362.433,357.594669 362.433,357.1 C362.433,356.577331 362.400334,356.096669 362.335,355.658 C362.269666,355.219331 362.160001,354.806335 362.006,354.419 C361.851999,354.031665 361.630335,353.726001 361.341,353.502 C361.051665,353.277999 360.701669,353.166 360.291,353.166 C359.861665,353.166 359.497668,353.284999 359.199,353.523 C358.900332,353.761001 358.676334,354.082998 358.527,354.489 C358.377666,354.895002 358.272667,355.310331 358.212,355.735 C358.151333,356.159669 358.121,356.614664 358.121,357.1 C358.121,357.622669 358.153666,358.100998 358.219,358.535 C358.284334,358.969002 358.396333,359.381998 358.555,359.774 C358.713667,360.166002 358.939999,360.471666 359.234,360.691 C359.528001,360.910334 359.880331,361.02 360.291,361.02 Z" id="20" fill="#131E4B"></path>
            <path d="M180.125,277 L180.125,275.712 C180.535669,275.525332 180.836666,275.189336 181.028,274.704 C181.219334,274.218664 181.329,273.714669 181.357,273.192 L181.357,272.912 L180.055,272.912 L180.055,271.876 L181.077,271.876 C181.058333,271.838666 181.021,271.761667 180.965,271.645 C180.909,271.528333 180.869333,271.446667 180.846,271.4 C180.822667,271.353333 180.787667,271.274001 180.741,271.162 C180.694333,271.049999 180.659333,270.952 180.636,270.868 C180.612667,270.784 180.587,270.683667 180.559,270.567 C180.531,270.450333 180.512333,270.326667 180.503,270.196 C180.493667,270.065333 180.489,269.930001 180.489,269.79 C180.489,269.024663 180.764331,268.373669 181.315,267.837 C181.865669,267.300331 182.654328,267.032 183.681,267.032 C184.773005,267.032 185.734329,267.344664 186.565,267.97 L186.089,269.118 C185.874332,268.940666 185.694667,268.800667 185.55,268.698 C185.405333,268.595333 185.160335,268.485667 184.815,268.369 C184.469665,268.252333 184.091669,268.194 183.681,268.194 C183.055664,268.194 182.582002,268.352665 182.26,268.67 C181.937998,268.987335 181.777,269.360665 181.777,269.79 C181.777,270.135335 181.886666,270.557664 182.106,271.057 C182.325334,271.556336 182.439667,271.829333 182.449,271.876 L184.759,271.876 L184.759,272.912 L182.645,272.912 L182.645,273.164 C182.598333,274.200005 182.178337,275.09133 181.385,275.838 L186.719,275.838 L186.719,277 L180.125,277 Z M191.325,277.168 C189.672992,277.168 188.55767,276.407341 187.979,274.886 L189.113,274.424 C189.551669,275.478672 190.288995,276.006 191.325,276.006 C191.941003,276.006 192.444998,275.856668 192.837,275.558 C193.229002,275.259332 193.425,274.825336 193.425,274.256 C193.425,273.714664 193.252335,273.283002 192.907,272.961 C192.561665,272.638998 192.05767,272.478 191.395,272.478 L190.695,272.478 L190.695,271.33 L191.325,271.33 C191.838336,271.33 192.253665,271.187668 192.571,270.903 C192.888335,270.618332 193.047,270.242669 193.047,269.776 C193.047,269.290664 192.890668,268.903335 192.578,268.614 C192.265332,268.324665 191.861669,268.18 191.367,268.18 C190.480329,268.18 189.831669,268.618662 189.421,269.496 L188.287,269.062 C188.520334,268.464664 188.900664,267.977002 189.428,267.599 C189.955336,267.220998 190.601663,267.032 191.367,267.032 C192.216338,267.032 192.920997,267.279331 193.481,267.774 C194.041003,268.268669 194.321,268.88933 194.321,269.636 C194.321,270.084002 194.211334,270.499331 193.992,270.882 C193.772666,271.264669 193.462335,271.558666 193.061,271.764 C193.574336,271.969334 193.975665,272.281998 194.265,272.702 C194.554335,273.122002 194.699,273.625997 194.699,274.214 C194.699,275.100671 194.377003,275.814664 193.733,276.356 C193.088997,276.897336 192.286338,277.168 191.325,277.168 Z M199.753,277.168 C198.100992,277.168 196.98567,276.407341 196.407,274.886 L197.541,274.424 C197.979669,275.478672 198.716995,276.006 199.753,276.006 C200.369003,276.006 200.872998,275.856668 201.265,275.558 C201.657002,275.259332 201.853,274.825336 201.853,274.256 C201.853,273.714664 201.680335,273.283002 201.335,272.961 C200.989665,272.638998 200.48567,272.478 199.823,272.478 L199.123,272.478 L199.123,271.33 L199.753,271.33 C200.266336,271.33 200.681665,271.187668 200.999,270.903 C201.316335,270.618332 201.475,270.242669 201.475,269.776 C201.475,269.290664 201.318668,268.903335 201.006,268.614 C200.693332,268.324665 200.289669,268.18 199.795,268.18 C198.908329,268.18 198.259669,268.618662 197.849,269.496 L196.715,269.062 C196.948334,268.464664 197.328664,267.977002 197.856,267.599 C198.383336,267.220998 199.029663,267.032 199.795,267.032 C200.644338,267.032 201.348997,267.279331 201.909,267.774 C202.469003,268.268669 202.749,268.88933 202.749,269.636 C202.749,270.084002 202.639334,270.499331 202.42,270.882 C202.200666,271.264669 201.890335,271.558666 201.489,271.764 C202.002336,271.969334 202.403665,272.281998 202.693,272.702 C202.982335,273.122002 203.127,273.625997 203.127,274.214 C203.127,275.100671 202.805003,275.814664 202.161,276.356 C201.516997,276.897336 200.714338,277.168 199.753,277.168 Z" id="£33" fill="#131E4B"></path>
            <path d="M345.097,193 L345.097,191.712 C345.507669,191.525332 345.808666,191.189336 346,190.704 C346.191334,190.218664 346.301,189.714669 346.329,189.192 L346.329,188.912 L345.027,188.912 L345.027,187.876 L346.049,187.876 C346.030333,187.838666 345.993,187.761667 345.937,187.645 C345.881,187.528333 345.841333,187.446667 345.818,187.4 C345.794667,187.353333 345.759667,187.274001 345.713,187.162 C345.666333,187.049999 345.631333,186.952 345.608,186.868 C345.584667,186.784 345.559,186.683667 345.531,186.567 C345.503,186.450333 345.484333,186.326667 345.475,186.196 C345.465667,186.065333 345.461,185.930001 345.461,185.79 C345.461,185.024663 345.736331,184.373669 346.287,183.837 C346.837669,183.300331 347.626328,183.032 348.653,183.032 C349.745005,183.032 350.706329,183.344664 351.537,183.97 L351.061,185.118 C350.846332,184.940666 350.666667,184.800667 350.522,184.698 C350.377333,184.595333 350.132335,184.485667 349.787,184.369 C349.441665,184.252333 349.063669,184.194 348.653,184.194 C348.027664,184.194 347.554002,184.352665 347.232,184.67 C346.909998,184.987335 346.749,185.360665 346.749,185.79 C346.749,186.135335 346.858666,186.557664 347.078,187.057 C347.297334,187.556336 347.411667,187.829333 347.421,187.876 L349.731,187.876 L349.731,188.912 L347.617,188.912 L347.617,189.164 C347.570333,190.200005 347.150337,191.09133 346.357,191.838 L351.691,191.838 L351.691,193 L345.097,193 Z M354.659,193.168 L354.659,192.034 C355.545671,191.875333 356.31333,191.483336 356.962,190.858 C357.61067,190.232664 358.014333,189.434672 358.173,188.464 C357.715664,189.024003 357.001672,189.304 356.031,189.304 C355.172329,189.304 354.456003,189.010003 353.882,188.422 C353.307997,187.833997 353.021,187.101338 353.021,186.224 C353.021,185.299995 353.335997,184.537003 353.966,183.935 C354.596003,183.332997 355.391662,183.032 356.353,183.032 C357.426339,183.032 358.238331,183.381997 358.789,184.082 C359.339669,184.782004 359.615,185.696661 359.615,186.826 C359.615,188.478008 359.174004,189.894327 358.292,191.075 C357.409996,192.255673 356.199008,192.953332 354.659,193.168 Z M356.311,188.17 C356.91767,188.17 357.409998,187.985669 357.788,187.617 C358.166002,187.248331 358.355,186.765336 358.355,186.168 C358.355,185.598664 358.161335,185.129669 357.774,184.761 C357.386665,184.392331 356.899003,184.208 356.311,184.208 C355.70433,184.208 355.212002,184.392331 354.834,184.761 C354.455998,185.129669 354.267,185.598664 354.267,186.168 C354.267,186.77467 354.451331,187.259998 354.82,187.624 C355.188669,187.988002 355.685664,188.17 356.311,188.17 Z M364.851,193.168 C363.889662,193.168 363.101003,192.885669 362.485,192.321 C361.868997,191.756331 361.561,191.044671 361.561,190.186 C361.561,189.588664 361.714998,189.063669 362.023,188.611 C362.331002,188.158331 362.736997,187.824668 363.241,187.61 C362.839665,187.404666 362.531668,187.124668 362.317,186.77 C362.102332,186.415332 361.995,186.018669 361.995,185.58 C361.995,184.86133 362.263331,184.257002 362.8,183.767 C363.336669,183.276998 364.020329,183.032 364.851,183.032 C365.681671,183.032 366.367664,183.276998 366.909,183.767 C367.450336,184.257002 367.721,184.86133 367.721,185.58 C367.721,186.522671 367.301004,187.199331 366.461,187.61 C366.974336,187.834001 367.384998,188.169998 367.693,188.618 C368.001002,189.066002 368.155,189.588664 368.155,190.186 C368.155,191.044671 367.847003,191.756331 367.231,192.321 C366.614997,192.885669 365.821672,193.168 364.851,193.168 Z M364.851,187.12 C365.336336,187.12 365.730665,186.982335 366.034,186.707 C366.337335,186.431665 366.489,186.088669 366.489,185.678 C366.489,185.220664 366.337335,184.854335 366.034,184.579 C365.730665,184.303665 365.336336,184.166 364.851,184.166 C364.374998,184.166 363.985335,184.303665 363.682,184.579 C363.378665,184.854335 363.227,185.220664 363.227,185.678 C363.227,186.088669 363.376332,186.431665 363.675,186.707 C363.973668,186.982335 364.365664,187.12 364.851,187.12 Z M364.851,192.02 C365.448336,192.02 365.938331,191.845002 366.321,191.495 C366.703669,191.144998 366.895,190.676003 366.895,190.088 C366.895,189.555997 366.701335,189.098669 366.314,188.716 C365.926665,188.333331 365.439003,188.142 364.851,188.142 C364.262997,188.142 363.777669,188.330998 363.395,188.709 C363.012331,189.087002 362.821,189.546664 362.821,190.088 C362.821,190.676003 363.009998,191.144998 363.388,191.495 C363.766002,191.845002 364.253664,192.02 364.851,192.02 Z" id="£98" fill="#131E4B"></path>
            <path d="M504.331,37 L504.331,35.712 C504.741669,35.5253324 505.042666,35.1893358 505.234,34.704 C505.425334,34.2186642 505.535,33.7146693 505.563,33.192 L505.563,32.912 L504.261,32.912 L504.261,31.876 L505.283,31.876 C505.264333,31.8386665 505.227,31.7616673 505.171,31.645 C505.115,31.5283327 505.075333,31.4466669 505.052,31.4 C505.028667,31.3533331 504.993667,31.2740006 504.947,31.162 C504.900333,31.0499994 504.865333,30.9520004 504.842,30.868 C504.818667,30.7839996 504.793,30.6836672 504.765,30.567 C504.737,30.4503328 504.718333,30.3266673 504.709,30.196 C504.699667,30.0653327 504.695,29.9300007 504.695,29.79 C504.695,29.0246628 504.970331,28.3736694 505.521,27.837 C506.071669,27.3003306 506.860328,27.032 507.887,27.032 C508.979005,27.032 509.940329,27.3446635 510.771,27.97 L510.295,29.118 C510.080332,28.9406658 509.900667,28.8006672 509.756,28.698 C509.611333,28.5953328 509.366335,28.4856672 509.021,28.369 C508.675665,28.2523328 508.297669,28.194 507.887,28.194 C507.261664,28.194 506.788002,28.3526651 506.466,28.67 C506.143998,28.9873349 505.983,29.3606645 505.983,29.79 C505.983,30.1353351 506.092666,30.5576642 506.312,31.057 C506.531334,31.5563358 506.645667,31.8293331 506.655,31.876 L508.965,31.876 L508.965,32.912 L506.851,32.912 L506.851,33.164 C506.804333,34.2000052 506.384337,35.0913296 505.591,35.838 L510.925,35.838 L510.925,37 L504.331,37 Z M512.437,37 C512.437,36.3839969 512.525666,35.8216692 512.703,35.313 C512.880334,34.8043308 513.136998,34.3586686 513.473,33.976 C513.809002,33.5933314 514.144998,33.2713346 514.481,33.01 C514.817002,32.7486654 515.218331,32.482668 515.685,32.212 C516.114335,31.9506654 516.450332,31.7290009 516.693,31.547 C516.935668,31.3649991 517.161999,31.1200015 517.372,30.812 C517.582001,30.5039985 517.687,30.1773351 517.687,29.832 C517.687,29.3559976 517.512002,28.9593349 517.162,28.642 C516.811998,28.3246651 516.34767,28.166 515.769,28.166 C514.686328,28.166 513.991002,28.6466619 513.683,29.608 L512.591,29.118 C512.787001,28.5019969 513.17433,28.0003353 513.753,27.613 C514.33167,27.2256647 515.017663,27.032 515.811,27.032 C516.781672,27.032 517.546997,27.2909974 518.107,27.809 C518.667003,28.3270026 518.947,29.0106624 518.947,29.86 C518.947,30.1960017 518.895667,30.5086652 518.793,30.798 C518.690333,31.0873348 518.566667,31.3346656 518.422,31.54 C518.277333,31.7453344 518.069668,31.9599989 517.799,32.184 C517.528332,32.4080011 517.288001,32.587666 517.078,32.723 C516.867999,32.858334 516.585668,33.0333323 516.231,33.248 C515.54033,33.6493353 514.996669,34.045998 514.6,34.438 C514.203331,34.830002 513.953667,35.2873307 513.851,35.81 L519.031,35.81 L519.031,37 L512.437,37 Z M521.005,37 C521.005,36.3839969 521.093666,35.8216692 521.271,35.313 C521.448334,34.8043308 521.704998,34.3586686 522.041,33.976 C522.377002,33.5933314 522.712998,33.2713346 523.049,33.01 C523.385002,32.7486654 523.786331,32.482668 524.253,32.212 C524.682335,31.9506654 525.018332,31.7290009 525.261,31.547 C525.503668,31.3649991 525.729999,31.1200015 525.94,30.812 C526.150001,30.5039985 526.255,30.1773351 526.255,29.832 C526.255,29.3559976 526.080002,28.9593349 525.73,28.642 C525.379998,28.3246651 524.91567,28.166 524.337,28.166 C523.254328,28.166 522.559002,28.6466619 522.251,29.608 L521.159,29.118 C521.355001,28.5019969 521.74233,28.0003353 522.321,27.613 C522.89967,27.2256647 523.585663,27.032 524.379,27.032 C525.349672,27.032 526.114997,27.2909974 526.675,27.809 C527.235003,28.3270026 527.515,29.0106624 527.515,29.86 C527.515,30.1960017 527.463667,30.5086652 527.361,30.798 C527.258333,31.0873348 527.134667,31.3346656 526.99,31.54 C526.845333,31.7453344 526.637668,31.9599989 526.367,32.184 C526.096332,32.4080011 525.856001,32.587666 525.646,32.723 C525.435999,32.858334 525.153668,33.0333323 524.799,33.248 C524.10833,33.6493353 523.564669,34.045998 523.168,34.438 C522.771331,34.830002 522.521667,35.2873307 522.419,35.81 L527.599,35.81 L527.599,37 L521.005,37 Z M531.043,37 C531.061667,35.3479917 531.294998,33.8336736 531.743,32.457 C532.191002,31.0803265 532.928328,29.7060069 533.955,28.334 L529.083,28.334 L529.083,27.2 L535.313,27.2 L535.313,28.306 C534.724997,28.9780034 534.223335,29.712996 533.808,30.511 C533.392665,31.309004 533.082334,32.0999961 532.877,32.884 C532.671666,33.6680039 532.522334,34.3889967 532.429,35.047 C532.335666,35.7050033 532.289,36.3559968 532.289,37 L531.043,37 Z" id="£227" fill="#131E4B"></path>
            <path d="M-42.114,118 L-43.332,118 L-43.332,111.98 C-43.332,111.597331 -43.3226668,111.238002 -43.304,110.902 C-43.3973338,111.163335 -43.541999,111.531998 -43.738,112.008 L-46.426,118.168 L-49.03,111.98 C-49.2540011,111.438664 -49.3939997,111.084001 -49.45,110.916 C-49.4219999,111.168001 -49.408,111.522664 -49.408,111.98 L-49.408,118 L-50.626,118 L-50.626,108.2 L-49.478,108.2 L-46.636,114.794 L-46.384,115.452 C-46.3466665,115.339999 -46.2626673,115.120668 -46.132,114.794 L-43.276,108.2 L-42.114,108.2 L-42.114,118 Z M-36.85,118.168 C-37.8206715,118.168 -38.5906638,117.83667 -39.16,117.174 C-39.7293362,116.51133 -40.014,115.596672 -40.014,114.43 C-40.014,113.263328 -39.7293362,112.346337 -39.16,111.679 C-38.5906638,111.011663 -37.8206715,110.678 -36.85,110.678 C-35.8793285,110.678 -35.1093362,111.00933 -34.54,111.672 C-33.9706638,112.33467 -33.686,113.249327 -33.686,114.416 C-33.686,115.582673 -33.9706638,116.499663 -34.54,117.167 C-35.1093362,117.834337 -35.8793285,118.168 -36.85,118.168 Z M-36.85,117.034 C-36.2433303,117.034 -35.7696684,116.803002 -35.429,116.341 C-35.0883316,115.878998 -34.918,115.237337 -34.918,114.416 C-34.918,113.603996 -35.0883316,112.964669 -35.429,112.498 C-35.7696684,112.031331 -36.2433303,111.798 -36.85,111.798 C-37.4566697,111.798 -37.9303316,112.028998 -38.271,112.491 C-38.6116684,112.953002 -38.782,113.599329 -38.782,114.43 C-38.782,115.242004 -38.6116684,115.878998 -38.271,116.341 C-37.9303316,116.803002 -37.4566697,117.034 -36.85,117.034 Z M-27.372,118 L-27.372,113.674 C-27.372,113.029997 -27.5096653,112.556335 -27.785,112.253 C-28.0603347,111.949665 -28.4359976,111.798 -28.912,111.798 C-30.0133388,111.798 -30.564,112.413994 -30.564,113.646 L-30.564,118 L-31.782,118 L-31.782,110.846 L-30.564,110.846 L-30.564,111.574 C-30.1253311,110.976664 -29.5093373,110.678 -28.716,110.678 C-27.8759958,110.678 -27.2390022,110.932331 -26.805,111.441 C-26.3709978,111.949669 -26.154,112.763994 -26.154,113.884 L-26.154,118 L-27.372,118 Z M-21.968,118.168 C-22.976005,118.168 -23.48,117.598672 -23.48,116.46 L-23.48,111.91 L-24.642,111.91 L-24.642,110.846 L-23.48,110.846 L-23.48,108.48 L-22.262,107.892 L-22.262,110.846 L-20.498,110.846 L-20.498,111.91 L-22.262,111.91 L-22.262,116.054 C-22.262,116.371335 -22.2106672,116.613999 -22.108,116.782 C-22.0053328,116.950001 -21.8093348,117.034 -21.52,117.034 C-21.2026651,117.034 -20.848002,116.908001 -20.456,116.656 L-20.596,117.846 C-21.0066687,118.060668 -21.4639975,118.168 -21.968,118.168 Z M-18.664,118 L-18.664,108.452 L-17.446,107.892 L-17.446,111.588 C-17.0073311,110.98133 -16.3913373,110.678 -15.598,110.678 C-14.7579958,110.678 -14.1210022,110.932331 -13.687,111.441 C-13.2529978,111.949669 -13.036,112.763994 -13.036,113.884 L-13.036,118 L-14.254,118 L-14.254,113.674 C-14.254,113.029997 -14.3916653,112.556335 -14.667,112.253 C-14.9423347,111.949665 -15.3179976,111.798 -15.794,111.798 C-16.8953388,111.798 -17.446,112.413994 -17.446,113.646 L-17.446,118 L-18.664,118 Z M-10.712,118 L-10.712,108.466 L-9.494,107.892 L-9.494,118 L-10.712,118 Z M-6.26,120.716 L-5.168,117.818 L-7.814,110.846 L-6.596,110.846 L-4.818,115.718 C-4.75266634,115.876667 -4.67800042,116.105332 -4.594,116.404 C-4.50999958,116.105332 -4.43533366,115.876667 -4.37,115.718 L-2.564,110.846 L-1.318,110.846 L-5.028,120.716 L-6.26,120.716 Z M6.648,118.168 C5.9013296,118.168 5.29000238,117.888003 4.814,117.328 L4.814,120.254 L3.596,120.828 L3.596,110.846 L4.814,110.846 L4.814,111.448 C5.3273359,110.934664 5.93866312,110.678 6.648,110.678 C7.55333786,110.678 8.27199734,111.013997 8.804,111.686 C9.33600266,112.358003 9.602,113.267994 9.602,114.416 C9.602,115.582673 9.33133604,116.499663 8.79,117.167 C8.24866396,117.834337 7.5346711,118.168 6.648,118.168 Z M6.494,117.034 C7.09133632,117.034 7.55099839,116.807669 7.873,116.355 C8.19500161,115.902331 8.356,115.256004 8.356,114.416 C8.356,113.622663 8.19033499,112.988002 7.859,112.512 C7.52766501,112.035998 7.07266956,111.798 6.494,111.798 C5.73799622,111.798 5.17800182,112.119997 4.814,112.764 L4.814,116.068 C5.30866914,116.712003 5.86866354,117.034 6.494,117.034 Z M15.594,118 L15.594,117.342 C15.0059971,117.892669 14.3293372,118.168 13.564,118.168 C12.8079962,118.168 12.2036689,117.960335 11.751,117.545 C11.2983311,117.129665 11.072,116.534671 11.072,115.76 C11.072,114.985329 11.3286641,114.397335 11.842,113.996 C12.3553359,113.594665 12.9899962,113.394 13.746,113.394 C14.4366701,113.394 15.052664,113.547998 15.594,113.856 L15.594,113.352 C15.594,112.754664 15.4610013,112.337001 15.195,112.099 C14.9289987,111.860999 14.5440025,111.742 14.04,111.742 C13.3213297,111.742 12.6260034,111.979998 11.954,112.456 L11.604,111.434 C12.3693372,110.929997 13.2326619,110.678 14.194,110.678 C15.8926752,110.678 16.742,111.536658 16.742,113.254 L16.742,118 L15.594,118 Z M13.746,117.09 C14.4460035,117.09 15.0619973,116.777336 15.594,116.152 L15.594,114.92 C15.0806641,114.602665 14.5206697,114.444 13.914,114.444 C13.4193309,114.444 13.0133349,114.555999 12.696,114.78 C12.3786651,115.004001 12.22,115.330665 12.22,115.76 C12.22,116.161335 12.3529987,116.483332 12.619,116.726 C12.8850013,116.968668 13.2606642,117.09 13.746,117.09 Z M20.97,118.168 C20.4566641,118.168 19.9690023,118.058334 19.507,117.839 C19.0449977,117.619666 18.6693348,117.328002 18.38,116.964 L19.248,116.222 C19.7800027,116.791336 20.3633302,117.076 20.998,117.076 C21.3993353,117.076 21.7213321,116.999001 21.964,116.845 C22.2066679,116.690999 22.328,116.464668 22.328,116.166 C22.328,115.941999 22.2393342,115.739001 22.062,115.557 C21.8846658,115.374999 21.7026676,115.239667 21.516,115.151 C21.3293324,115.062333 21.0540018,114.948001 20.69,114.808 C19.9619964,114.537332 19.4113352,114.234002 19.038,113.898 C18.6646648,113.561998 18.478,113.118669 18.478,112.568 C18.478,111.98933 18.7043311,111.529668 19.157,111.189 C19.6096689,110.848332 20.1859965,110.678 20.886,110.678 C21.8846717,110.678 22.6873303,111.03733 23.294,111.756 L22.454,112.456 C22.0153311,111.998664 21.4880031,111.77 20.872,111.77 C20.5079982,111.77 20.2186677,111.839999 20.004,111.98 C19.7893323,112.120001 19.682,112.315999 19.682,112.568 C19.682,112.708001 19.7169997,112.836333 19.787,112.953 C19.8570004,113.069667 19.9829991,113.179333 20.165,113.282 C20.3470009,113.384667 20.4916661,113.461666 20.599,113.513 C20.7063339,113.564334 20.9046652,113.645999 21.194,113.758 C21.9500038,114.028668 22.5263314,114.336665 22.923,114.682 C23.3196687,115.027335 23.518,115.512664 23.518,116.138 C23.518,116.77267 23.2893356,117.269665 22.832,117.629 C22.3746644,117.988335 21.7540039,118.168 20.97,118.168 Z M27.536,118.168 C27.0226641,118.168 26.5350023,118.058334 26.073,117.839 C25.6109977,117.619666 25.2353348,117.328002 24.946,116.964 L25.814,116.222 C26.3460027,116.791336 26.9293302,117.076 27.564,117.076 C27.9653353,117.076 28.2873321,116.999001 28.53,116.845 C28.7726679,116.690999 28.894,116.464668 28.894,116.166 C28.894,115.941999 28.8053342,115.739001 28.628,115.557 C28.4506658,115.374999 28.2686676,115.239667 28.082,115.151 C27.8953324,115.062333 27.6200018,114.948001 27.256,114.808 C26.5279964,114.537332 25.9773352,114.234002 25.604,113.898 C25.2306648,113.561998 25.044,113.118669 25.044,112.568 C25.044,111.98933 25.2703311,111.529668 25.723,111.189 C26.1756689,110.848332 26.7519965,110.678 27.452,110.678 C28.4506717,110.678 29.2533303,111.03733 29.86,111.756 L29.02,112.456 C28.5813311,111.998664 28.0540031,111.77 27.438,111.77 C27.0739982,111.77 26.7846677,111.839999 26.57,111.98 C26.3553323,112.120001 26.248,112.315999 26.248,112.568 C26.248,112.708001 26.2829997,112.836333 26.353,112.953 C26.4230004,113.069667 26.5489991,113.179333 26.731,113.282 C26.9130009,113.384667 27.0576661,113.461666 27.165,113.513 C27.2723339,113.564334 27.4706652,113.645999 27.76,113.758 C28.5160038,114.028668 29.0923314,114.336665 29.489,114.682 C29.8856687,115.027335 30.084,115.512664 30.084,116.138 C30.084,116.77267 29.8553356,117.269665 29.398,117.629 C28.9406644,117.988335 28.3200039,118.168 27.536,118.168 Z M32.604,109.544 C32.3893323,109.544 32.2096674,109.469334 32.065,109.32 C31.9203326,109.170666 31.848,108.993334 31.848,108.788 C31.848,108.573332 31.9226659,108.389001 32.072,108.235 C32.2213341,108.080999 32.3986656,108.004 32.604,108.004 C32.8186677,108.004 33.0006659,108.080999 33.15,108.235 C33.2993341,108.389001 33.374,108.573332 33.374,108.788 C33.374,109.002668 33.2993341,109.182333 33.15,109.327 C33.0006659,109.471667 32.8186677,109.544 32.604,109.544 Z M32.002,118 L32.002,110.846 L33.22,110.846 L33.22,118 L32.002,118 Z M37.462,118 L34.844,110.846 L36.076,110.846 L37.77,115.62 C37.8913339,115.974668 37.9659999,116.207999 37.994,116.32 C38.0220001,116.207999 38.0966661,115.974668 38.218,115.62 L39.884,110.846 L41.102,110.846 L38.484,118 L37.462,118 Z M45.47,118.168 C44.4993285,118.168 43.7270029,117.820337 43.153,117.125 C42.5789971,116.429663 42.292,115.526672 42.292,114.416 C42.292,113.249327 42.5813304,112.33467 43.16,111.672 C43.7386696,111.00933 44.5086619,110.678 45.47,110.678 C46.328671,110.678 47.0356639,110.964997 47.591,111.539 C48.1463361,112.113003 48.424,112.959994 48.424,114.08 C48.424,114.341335 48.4100001,114.611999 48.382,114.892 L43.538,114.892 C43.5846669,115.545337 43.7876649,116.070331 44.147,116.467 C44.5063351,116.863669 44.956664,117.062 45.498,117.062 C46.0953363,117.062 46.6086645,116.847335 47.038,116.418 L47.78,117.244 C47.1639969,117.860003 46.3940046,118.168 45.47,118.168 Z M43.524,113.856 L47.192,113.856 C47.1826666,113.118663 47.0076684,112.584335 46.667,112.253 C46.3263316,111.921665 45.9273356,111.756 45.47,111.756 C44.9193306,111.756 44.4666684,111.930998 44.112,112.281 C43.7573316,112.631002 43.5613335,113.155997 43.524,113.856 Z M54.15,109.544 C53.9353323,109.544 53.7556674,109.469334 53.611,109.32 C53.4663326,109.170666 53.394,108.993334 53.394,108.788 C53.394,108.573332 53.4686659,108.389001 53.618,108.235 C53.7673341,108.080999 53.9446656,108.004 54.15,108.004 C54.3646677,108.004 54.5466659,108.080999 54.696,108.235 C54.8453341,108.389001 54.92,108.573332 54.92,108.788 C54.92,109.002668 54.8453341,109.182333 54.696,109.327 C54.5466659,109.471667 54.3646677,109.544 54.15,109.544 Z M53.548,118 L53.548,110.846 L54.766,110.846 L54.766,118 L53.548,118 Z M61.5,118 L61.5,113.674 C61.5,113.029997 61.3623347,112.556335 61.087,112.253 C60.8116653,111.949665 60.4360024,111.798 59.96,111.798 C58.8586612,111.798 58.308,112.413994 58.308,113.646 L58.308,118 L57.09,118 L57.09,110.846 L58.308,110.846 L58.308,111.574 C58.7466689,110.976664 59.3626627,110.678 60.156,110.678 C60.9960042,110.678 61.6329978,110.932331 62.067,111.441 C62.5010022,111.949669 62.718,112.763994 62.718,113.884 L62.718,118 L61.5,118 Z M67.52,118.168 C66.6053288,118.168 65.8820027,117.839003 65.35,117.181 C64.8179973,116.522997 64.552,115.606006 64.552,114.43 C64.552,113.253994 64.8203307,112.33467 65.357,111.672 C65.8936694,111.00933 66.6333286,110.678 67.576,110.678 C68.8453397,110.678 69.6806647,111.233328 70.082,112.344 L68.934,112.764 C68.6913321,112.12933 68.2433366,111.812 67.59,111.812 C66.9926637,111.812 66.5446682,112.040664 66.246,112.498 C65.9473318,112.955336 65.798,113.599329 65.798,114.43 C65.798,115.251337 65.9473318,115.888331 66.246,116.341 C66.5446682,116.793669 66.9786638,117.02 67.548,117.02 C68.2946704,117.02 68.7799989,116.665337 69.004,115.956 L70.138,116.334 C69.9606658,116.922003 69.6456689,117.374665 69.193,117.692 C68.7403311,118.009335 68.18267,118.168 67.52,118.168 Z M74.716,118.168 C73.7453285,118.168 72.9753362,117.83667 72.406,117.174 C71.8366638,116.51133 71.552,115.596672 71.552,114.43 C71.552,113.263328 71.8366638,112.346337 72.406,111.679 C72.9753362,111.011663 73.7453285,110.678 74.716,110.678 C75.6866715,110.678 76.4566638,111.00933 77.026,111.672 C77.5953362,112.33467 77.88,113.249327 77.88,114.416 C77.88,115.582673 77.5953362,116.499663 77.026,117.167 C76.4566638,117.834337 75.6866715,118.168 74.716,118.168 Z M74.716,117.034 C75.3226697,117.034 75.7963316,116.803002 76.137,116.341 C76.4776684,115.878998 76.648,115.237337 76.648,114.416 C76.648,113.603996 76.4776684,112.964669 76.137,112.498 C75.7963316,112.031331 75.3226697,111.798 74.716,111.798 C74.1093303,111.798 73.6356684,112.028998 73.295,112.491 C72.9543316,112.953002 72.784,113.599329 72.784,114.43 C72.784,115.242004 72.9543316,115.878998 73.295,116.341 C73.6356684,116.803002 74.1093303,117.034 74.716,117.034 Z M88.17,118 L88.17,113.66 C88.17,112.41866 87.6893381,111.798 86.728,111.798 C86.2706644,111.798 85.8996681,111.972998 85.615,112.323 C85.3303319,112.673002 85.188,113.132664 85.188,113.702 L85.188,118 L83.97,118 L83.97,113.66 C83.97,112.41866 83.4940048,111.798 82.542,111.798 C82.0659976,111.798 81.6903347,111.963665 81.415,112.295 C81.1396653,112.626335 81.002,113.076664 81.002,113.646 L81.002,118 L79.784,118 L79.784,110.846 L81.002,110.846 L81.002,111.518 C81.4220021,110.957997 82.0473292,110.678 82.878,110.678 C83.2793353,110.678 83.6503316,110.768999 83.991,110.951 C84.3316684,111.133001 84.599999,111.391998 84.796,111.728 C85.2533356,111.027997 85.9439954,110.678 86.868,110.678 C87.6146704,110.678 88.221331,110.906664 88.688,111.364 C89.154669,111.821336 89.388,112.469996 89.388,113.31 L89.388,118 L88.17,118 Z M94.386,118.168 C93.4153285,118.168 92.6430029,117.820337 92.069,117.125 C91.4949971,116.429663 91.208,115.526672 91.208,114.416 C91.208,113.249327 91.4973304,112.33467 92.076,111.672 C92.6546696,111.00933 93.4246619,110.678 94.386,110.678 C95.244671,110.678 95.9516639,110.964997 96.507,111.539 C97.0623361,112.113003 97.34,112.959994 97.34,114.08 C97.34,114.341335 97.3260001,114.611999 97.298,114.892 L92.454,114.892 C92.5006669,115.545337 92.7036649,116.070331 93.063,116.467 C93.4223351,116.863669 93.872664,117.062 94.414,117.062 C95.0113363,117.062 95.5246645,116.847335 95.954,116.418 L96.696,117.244 C96.0799969,117.860003 95.3100046,118.168 94.386,118.168 Z M92.44,113.856 L96.108,113.856 C96.0986666,113.118663 95.9236684,112.584335 95.583,112.253 C95.2423316,111.921665 94.8433356,111.756 94.386,111.756 C93.8353306,111.756 93.3826684,111.930998 93.028,112.281 C92.6733316,112.631002 92.4773335,113.155997 92.44,113.856 Z" id="Monthly-passive-inco" fill="#131E4B" transform="translate(23.357000, 114.360000) rotate(-90.000000) translate(-23.357000, -114.360000) "></path>
        </g>
    </g>
</svg>