<?xml version="1.0" encoding="UTF-8" standalone="no"?>
<svg width="281px" height="264px" viewBox="0 0 281 264" version="1.1" xmlns="http://www.w3.org/2000/svg" xmlns:xlink="http://www.w3.org/1999/xlink">
    <!-- Generator: Sketch 41 (35326) - http://www.bohemiancoding.com/sketch -->
    <title>well-done</title>
    <desc>Created with Sketch.</desc>
    <defs></defs>
    <g id="Page-1" stroke="none" stroke-width="1" fill="none" fill-rule="evenodd">
        <g id="well-done">
            <polygon id="Star" stroke="#CADCF1" fill="#06D57E" transform="translate(190.453015, 99.841699) rotate(-13.000000) translate(-190.453015, -99.841699) " points="190.453015 137.810864 166.986781 172.063343 168.1353 130.559399 129.017616 144.47713 154.342193 111.574817 114.514685 99.8416994 154.342193 88.1085821 129.017616 55.2062688 168.1353 69.1239996 166.986781 27.6200556 190.453015 61.8725343 213.91925 27.6200556 212.77073 69.1239996 251.888415 55.2062688 226.563837 88.1085821 266.391345 99.8416994 226.563837 111.574817 251.888415 144.47713 212.77073 130.559399 213.91925 172.063343"></polygon>
            <polygon id="Star" stroke="#CADCF1" fill="#DCF600" transform="translate(90.238371, 171.453015) rotate(-13.000000) translate(-90.238371, -171.453015) " points="90.2383706 223.156746 66.7721361 243.674659 59.8476804 213.282212 28.802971 216.088446 41.0652009 187.430347 14.3000404 171.453015 41.0652009 155.475684 28.802971 126.817585 59.8476804 129.623819 66.7721361 99.2313714 90.2383706 119.749285 113.704605 99.2313714 120.629061 129.623819 151.67377 126.817585 139.41154 155.475684 166.176701 171.453015 139.41154 187.430347 151.67377 216.088446 120.629061 213.282212 113.704605 243.674659"></polygon>
            <polygon id="Star" stroke="#06D57E" fill="#E1FF2C" transform="translate(172.978669, 170.591981) rotate(-13.000000) translate(-172.978669, -170.591981) " points="172.978669 206.841904 156.526294 221.227187 151.671499 199.918785 129.905791 201.886259 138.502944 181.793823 119.737663 170.591981 138.502944 159.390139 129.905791 139.297703 151.671499 141.265177 156.526294 119.956775 172.978669 134.342058 189.431045 119.956775 194.28584 141.265177 216.051548 139.297703 207.454395 159.390139 226.219676 170.591981 207.454395 181.793823 216.051548 201.886259 194.28584 199.918785 189.431045 221.227187"></polygon>
            <g id="thumbs-up" transform="translate(47.000000, 0.000000)" stroke="#131B43">
                <g id="Two-Thumbs-Up">
                    <g id="Layer-1">
                        <g id="svg_4">
                            <g id="layer1" transform="translate(104.460013, 131.827502) rotate(24.150000) translate(-104.460013, -131.827502) translate(42.460013, 15.827502)">
                                <path d="M16.633823,208.777576 C18.5373707,213.405458 18.3888166,212.872285 20.0526814,215.212991 C18.216475,218.740896 24.0162779,224.682874 30.9213359,226.248649 C33.1457773,227.852043 33.9321612,227.318869 38.6781522,229.245344 C50.6758473,232.232181 65.9855247,230.56334 75.3705118,230.323579 C83.8899859,229.728953 92.3895728,227.077112 96.0837486,225.634182 C102.778866,223.017998 106.980148,220.423587 110.058344,215.337863 C115.428294,206.466569 113.580179,199.323541 108.81043,195.377444 C114.113038,190.085618 116.662303,181.440266 114.750838,174.990939 C122.285777,169.663336 124.329989,155.910485 122.988983,143.650008 C122.313524,137.460283 119.370068,133.137606 117.460597,130.487762 C118.866948,119.501703 116.523635,108.345197 111.613222,100.409333 C108.230059,94.9430678 101.352687,88.206379 94.5763869,88.0339357 C87.8020221,87.8634883 72.5815659,92.6519598 70.5770093,82.5260566 C68.5724526,72.3981575 78.4368014,58.4213001 80.7385277,43.7388872 C82.1547924,34.7110271 74.6792162,24.0480178 69.7391226,17.0635511 C64.8148674,10.0988922 57.9750946,6.31928109 49.3427604,2.29784982 C42.2376771,-1.01400246 30.9847473,-0.0785125561 26.0505485,7.0367523 C20.7736929,14.6495055 22.4177597,27.0189772 24.4025202,36.1756693 C26.195143,44.4524261 29.5585686,52.2514747 30.7311929,60.7798485 C31.8820263,69.1457603 34.4491542,84.5100206 32.3534688,92.0494072 C25.9673687,98.0072332 19.4663842,98.0943923 12.3077737,102.044481 C5.58886938,105.752751 2.08087893,114.102817 3.51697145,121.521293 C4.53312231,126.773502 10.2695157,130.301407 5.87609343,135.734043 C0.630942581,142.217059 -2.55814883,151.998078 4.08743023,157.771515 C10.7330093,163.545014 9.73468959,166.046308 10.72509,166.96985 C11.7174851,167.893454 11.9135825,170.147002 9.53266771,176.40202 C5.68991003,186.502188 4.35086684,187.324721 12.1809787,194.469686 C15.0887984,197.123584 9.15827456,207.245464 16.6338211,208.777578 L16.633823,208.777576 Z" id="path3128" stroke-width="3" fill="#FFFFFF"></path>
                                <path d="M75.3705118,230.323577 C65.9855247,230.56334 50.6758473,232.232179 38.6781522,229.245342 C45.3277206,229.647718 51.0561928,228.803408 54.100658,228.482293 C60.7898503,227.77474 68.1782594,225.875999 73.6293917,223.943564 C79.8075474,221.755522 81.0138115,220.859618 84.9714834,218.514981 C84.4623799,221.121276 83.2303634,223.812795 81.2733202,225.618331 C87.9981174,223.76719 102.459994,219.00252 106.405698,213.215169 C110.244528,207.584386 110.583225,201.533473 104.432816,196.580484 C102.210399,194.89976 101.519102,191.445194 105.048855,193.058567 C106.189834,191.58591 108.957019,186.547757 109.612652,183.07931 C110.987328,175.829253 107.932949,163.533152 101.832049,158.496934 C105.771889,160.048797 111.29435,165.988749 113.445498,169.308615 C119.154144,163.420166 120.841826,153.187264 119.522581,143.437941 C117.809208,130.777116 113.384081,127.229371 102.933374,120.986177 C109.157046,122.012848 112.086659,124.175185 114.630001,126.62688 C115.481732,118.314497 112.425356,109.601703 108.543004,102.32198 C105.722322,97.0340859 100.38012,91.686673 94.5763869,88.0339278 C101.352687,88.2063711 108.230057,94.9430598 111.613222,100.409326 C116.523635,108.345189 118.86695,119.501695 117.460597,130.487754 C119.370068,133.137598 122.313524,137.460275 122.988983,143.65 C124.329989,155.910477 122.285777,169.663328 114.750838,174.990931 C116.662303,181.440258 114.113038,190.08561 108.81043,195.377436 C113.580179,199.323533 115.428292,206.466561 110.058344,215.337856 C106.980148,220.423579 102.778866,223.01799 96.0837486,225.634175 C92.3895748,227.077102 83.8899879,229.728945 75.3705118,230.323571 L75.3705118,230.323577 Z M10.72509,166.969848 C9.73468959,166.046304 10.7330093,163.54501 4.08743023,157.771513 C-2.55814883,151.998076 0.630942581,142.217057 5.87609343,135.734041 C10.2695138,130.301405 4.53312231,126.7735 3.51697145,121.521291 C2.08087893,114.102815 5.58886938,105.752749 12.3077737,102.044479 C19.4663842,98.0943904 25.9673687,98.0072312 32.3534688,92.0494052 C34.4491542,84.5100186 31.8820243,69.1457584 30.7311929,60.7798466 C29.5585686,52.2514707 26.195141,44.4524242 24.4025202,36.1756673 C22.4177597,27.0189752 20.773691,14.6495055 26.0505485,7.03675032 C30.9847492,-0.078514538 42.2376771,-1.01400444 49.3427604,2.29784783 C57.9750946,6.31927911 64.8148654,10.0988922 69.7391226,17.0635491 C74.6792162,24.0480158 82.1547924,34.7110251 80.7385277,43.7388852 C78.4368014,58.4213001 68.5724526,72.3981555 70.5770093,82.5260546 C65.7497737,74.2909707 76.2678225,55.6465518 77.188887,44.4285949 C78.0446068,33.8845594 71.7139989,25.568185 66.8313326,19.0058878 C63.6956495,14.7902393 56.4736574,9.0801754 49.5864326,6.36881647 C43.9530467,4.14901983 36.3289461,1.71120449 30.132989,8.68971341 C24.4916839,14.6732753 26.2882664,28.1367964 28.1303954,35.2402071 C30.6836497,45.0886049 33.7162677,54.5981055 35.1344974,66.3294006 C36.0496393,73.892557 36.4279604,84.036302 35.655448,92.0494072 C38.8524884,93.4744319 49.6636838,88.9496158 55.8675304,87.629592 C64.3077566,85.835911 74.5841279,81.6619077 83.0243541,86.882421 C70.8226127,85.8616766 61.5960026,88.743481 50.8818585,91.8314183 C42.8913137,94.1344418 35.0552792,97.1232448 27.1855434,99.6680865 C21.1520437,102.173313 14.1697028,104.549705 9.92090667,109.35003 C6.10586435,113.662788 4.62621797,118.381882 9.65151378,123.291202 C16.3545499,129.837668 8.41151856,137.488043 4.47962682,142.682792 C-0.8031533,149.661301 8.19958277,155.18902 11.9353772,160.076564 C16.0118635,165.410034 12.9436108,174.291248 10.277435,180.500812 C7.51620449,186.932295 12.315693,186.952073 16.2475847,194.531137 C18.5155799,198.901415 14.0667269,204.488589 16.633825,208.777576 C9.15827852,207.245462 15.0888023,197.123582 12.1809827,194.469684 C4.3508708,187.324721 5.68991201,186.502186 9.53267167,176.402019 C11.9135864,170.147 11.7174891,167.893452 10.725094,166.969848 L10.72509,166.969848 Z M30.9213339,226.248647 C26.8032588,225.525186 18.0797978,220.278905 20.0526794,215.212989 C21.716576,218.616052 32.0563586,220.397817 30.9213339,226.248647 L30.9213339,226.248647 Z M57.78099,199.139241 C54.068983,198.399903 43.8599511,190.551349 48.9664023,189.633732 C56.4815727,191.696934 64.7652959,195.722327 72.9222577,193.591685 C81.0693056,191.465005 90.9970658,189.679278 98.5142309,193.024881 C90.5751889,194.103025 85.1537389,196.027534 77.4820653,197.456551 C71.2841433,198.610059 64.2503293,200.431472 57.780992,199.139241 L57.78099,199.139241 Z M98.696425,181.242053 C101.095173,175.179226 94.1366174,164.145565 97.8862834,162.290431 C99.7324037,168.204648 107.509018,174.354695 101.626035,179.660433 C101.317019,180.453209 99.6729816,183.340942 98.696423,181.242053 L98.696425,181.242053 Z M40.956091,162.028835 C33.1338984,155.880724 35.1662021,154.324869 39.8072225,155.456602 C44.7433566,156.657652 56.9055037,157.287964 60.4392446,156.453515 C68.3486043,154.582535 84.490125,151.213222 91.0763117,157.176976 C84.1534225,156.033327 71.0543724,159.367045 62.4259681,160.774196 C57.6106411,161.561044 44.7849435,165.039382 40.956089,162.028835 L40.956091,162.028835 Z M94.726904,150.327239 C101.509188,145.790508 94.3663844,130.765204 100.803987,128.959607 C103.254238,135.797428 105.18952,149.950659 95.1587522,150.802954 L94.726902,150.327239 L94.726902,150.327239 L94.726904,150.327239 Z M36.8142284,128.35512 C29.6674949,125.281095 29.8338821,121.289393 39.0762991,122.147612 C50.5054984,123.209969 62.5606506,120.375707 73.4590449,118.980439 C80.5384371,118.072681 92.7679236,116.643665 97.6664283,119.670149 C88.8597599,121.23193 79.6431231,121.400381 71.2425524,123.988834 C61.5167527,126.983625 38.2978344,128.993356 36.8142284,128.35512 L36.8142284,128.35512 Z M91.8527837,92.1683175 C96.2343271,96.3383906 101.667626,103.366437 96.9771275,109.490717 C97.6010837,102.763946 91.181314,97.9794678 91.8527837,92.1683175 Z M40.5262354,64.7735441 C43.6063669,57.3669217 56.5152424,60.7203894 64.1334184,60.4429433 C70.2323242,66.1411075 58.7971408,63.4119069 55.4416641,64.0917563 C50.9472031,63.2038377 43.7014533,69.6907863 40.5262354,64.7735421 L40.5262354,64.7735441 Z" id="path8092" stroke-width="2" fill="#131B43"></path>
                            </g>
                        </g>
                    </g>
                </g>
            </g>
            <polygon id="Star" stroke="#06D57E" fill="#CADCF1" transform="translate(77.459497, 56.896577) rotate(-13.000000) translate(-77.459497, -56.896577) " points="77.4594974 87.8309723 46.9254235 103.883685 52.7569127 69.883494 28.054328 45.8044251 62.1924604 40.8438641 77.4594974 9.9094684 92.7265343 40.8438641 126.864667 45.8044251 102.162082 69.883494 107.993571 103.883685"></polygon>
        </g>
    </g>
</svg>